<svg xmlns="http://www.w3.org/2000/svg" preserveAspectRatio="xMidYMid" viewBox="0 0 729.641 485.631" fill="#2094f3">
  <path d="M331.641 1.158c-6.5 2.1-10.1 4.3-13.6 8.5-1.9 2.2-9 15-15.8 28.5l-12.3 24.6-27.7-.2-27.6-.3-.5-10.7c-.7-15.9.5-15.2-27.2-15.6-12.1-.2-23.1-.1-24.4.2-4.1 1.1-5.6 4.8-6.3 15.9l-.6 10.2-19.5.6c-12.6.4-21.9 1.2-26.3 2.2-12.6 3.1-25.1 11-31.9 20.3-9 12.3-12.4 23.3-13.5 44.1l-.6 11.3h36l.6-11.5c.7-12.6 2.6-18.7 7.5-23.8 3.9-4.2 6.8-5.4 16.8-7.1 7.5-1.4 20.7-1.6 86.5-1.6 72.6 0 77.7-.1 79.1-1.8 1.5-1.7 14.8-30.2 18.6-39.8 1.1-2.7 3.6-8.4 5.5-12.7l3.6-7.7 60.3.2 60.2.3 6.3 12.5c3.4 6.9 9.6 19.5 13.7 28 6.3 12.9 8.1 15.9 11.2 18l3.8 2.5 78.5.5c53.3.4 79.6.9 81.7 1.7 13.7 4.8 18.4 12.9 18.4 31.2v10.9l2.8.5c1.5.3 9.6.3 18 0l15.2-.6v-8.6c-.1-17.1-3.4-31.4-9.5-41.2-4.5-7-14.4-16.1-22.1-20.1-14.2-7.5-10.5-7.2-92.3-7.8l-73.4-.5-1.8-2.5c-1-1.4-5.5-10.4-9.9-20-9.2-20.1-12.9-26.5-18.3-32-7.7-7.7-5-7.4-79.2-7.7-51.5-.2-66.9.1-70 1.1z"/>
  <path d="M526.241 115.958c-7.2 1.1-12.9 4.4-16.6 9.6-2.7 3.9-3 5.2-3 11.6 0 6.2.4 7.8 2.8 11.4 1.5 2.3 4.6 5.4 6.9 6.9 3.5 2.3 5.5 2.9 12.1 3.2 9.6.4 14.5-.9 19.4-5.2 10.9-9.6 9.3-26.9-3.1-34.2-5.5-3.2-11.7-4.3-18.5-3.3zM185.441 123.458c-3.4.2-6.6.9-7.1 1.6-.7.8-1.1 35-1.3 100.6-.2 96.5-.1 99.5 1.7 100.9 1.5 1.1 5.3 1.3 19.6 1 15.7-.4 18-.7 19.9-2.4 2.1-1.9 2.1-2.3 1.8-46.9-.3-48.5-.2-49.5 5-57.7 6.3-9.9 16.4-14 29.8-12.1 12.4 1.8 17.4 5.8 21 16.7 1.4 4.3 1.8 12.3 2.3 53.6.6 39.4 1 49.8 2.4 55.5 13.1 56.6 55.1 96.8 109.6 105 28.7 4.4 60.8-.1 85.5-12 32.2-15.4 58.9-46.9 70.4-82.7 6-18.9 6.1-20.3 6.1-95.8 0-67 0-68.8-2-71.3-2.5-3.1-5.1-3.6-22.2-3.9-10.1-.2-14.1.1-15 1-1 1-1.4 16.7-1.8 72.5-.6 81.3-.2 77-10 97.5-13.6 28.5-34.3 46-63.8 53.9-13.1 3.5-33 3.7-46.9.5-31.3-7.2-56.5-31.4-67.4-64.7-2.1-6.6-2.3-8.9-2.6-38.5-.5-62.9-1-78.2-2.7-84.8-3.6-14.4-14.6-29.6-25.5-35.6-6.2-3.3-18.9-6.6-25.5-6.6-16 .1-30.3 5.7-40.3 15.7l-6.3 6.3v-31.8c0-27.1-.2-32.1-1.6-34-1.4-2.1-2.1-2.2-14.2-2-7 .1-15.5.3-18.9.5zM74.641 170.258c-12.8 2.4-19.4 5.6-27.8 13.4l-4.8 4.5.2-5.7c.1-3.2-.2-6.2-.7-6.7-.5-.5-9.2-1-19.3-1-21.8-.2-21.8-.2-22.1 9.5-.1 3.3-.2 49.5-.1 102.7.1 86.4.3 96.8 1.7 98.2 2.3 2.3 34.9 2.3 38.2 0l2.2-1.5v-72.1l5.4 4.9c6.3 5.8 17 11.6 25.2 13.8 7.4 1.9 22.7 1.9 31.9 0 14.2-3 29.1-12.7 38.9-25.4 27.8-36.1 21.7-94.7-12.7-120.7-15.8-11.9-37.8-17.4-56.2-13.9zm19.8 41.9c22.6 11.5 29.7 42.3 14.9 65.2-8.4 13-26.3 20.1-40.3 16.1-7.6-2.3-15.7-7.4-19.5-12.4-5.8-7.7-7.3-13.3-7.6-29.9-.2-14.2-.1-15.2 2.4-20.5 6.8-14.8 18.7-22.1 35.3-21.6 7.7.2 9.9.6 14.8 3.1z"/>
  <path d="M402.141 169.358c-13.8 2.7-29.6 9.8-40.1 18.1-25.4 19.9-35.5 57.7-24.3 91.2 10.9 32.8 44.2 54.7 80.4 52.8 34.8-1.8 64.9-23.8 75.6-55.2 3.9-11.4 4.5-31.7 1.5-45.4-3.5-15.8-13.4-33.2-24.3-42.6-6.8-5.9-18.1-12-28.6-15.5-8.8-3-10.9-3.3-23.7-3.6-7.7-.1-15.1 0-16.5.2zm24.6 39.4c29.8 10.1 38.1 50.9 14.8 73-3 2.8-8 6.3-11.1 7.8-5 2.3-7.1 2.7-15.3 2.7-8.4 0-10.1-.3-14.8-2.8-16-8.4-23.8-22.5-23-41.6.3-8.2.8-10.6 3.5-16.2 5.2-11.3 14.3-19.5 25.2-23 7.4-2.4 13.4-2.3 20.7.1zM629.341 171.758c-10.3 2.4-26.5 10-35 16.5-11.8 8.9-22.2 24.7-26.8 40.5-2.6 9.1-2.7 32.9 0 41.5 7.8 25.9 23.4 44 45.8 53.3 9.5 4 25.5 7.2 35.5 7.2 37.2 0 67-20.6 78.1-53.8 2.4-7 2.6-9.2 2.7-24.7 0-18.2-.9-23.2-6.3-35.5-9.2-21-29.5-38.2-52.1-44.1-11.4-3.1-31.1-3.5-41.9-.9zm29.8 38.6c7.1 2.1 11.6 5.1 17.7 11.8 7.8 8.5 9.7 14.4 9.8 29.1 0 11.6-.1 12.2-3.3 18.8-8.6 17.4-27.3 27-43.7 22.2-34.1-9.9-41.5-57.4-12.1-77.4 8.7-5.9 20.9-7.7 31.6-4.5zM84.141 388.458c0 17.5.5 34.9 1 38.8 1.4 9.8 5.5 21.4 9.9 28.2 7.7 11.8 22.6 23.1 37.1 28 5.3 1.7 15.6 1.8 259 2.1 188.5.2 255.4 0 261-.8 19.3-3 37.7-16.3 46.8-33.7 8.2-15.7 9.5-25.6 8.6-65.1l-.7-29.2h-34.7l-.1 18.2c0 10.1-.4 26.1-.8 35.6-.8 16.6-1 17.6-4 23.7-1.9 3.8-4.9 7.9-7.3 10-8.3 7 12.4 6.5-263.8 6.5-280.5 0-255.8.7-264.8-7.8-9.2-8.5-11.2-17.3-11.2-48 0-10.3-.3-23.1-.7-28.5l-.6-9.7h-34.7z"/>
</svg>